<svg width="40" height="30" viewBox="0 0 40 30" fill="none" xmlns="http://www.w3.org/2000/svg">
<path fill-rule="evenodd" clip-rule="evenodd" d="M3.37957 8.12527C-1.12652 12.5825 -1.12652 19.8088 3.37957 24.266C5.46868 26.3324 8.16261 27.4414 10.8969 27.5912C11.6039 27.6299 12.2088 27.0945 12.2479 26.3951C12.2871 25.696 11.7457 25.0976 11.0387 25.0588C8.91004 24.9422 6.81857 24.0807 5.19269 22.4725C1.68795 19.0058 1.68795 13.3853 5.19269 9.91868L10.0277 5.13625C13.5324 1.6696 19.2148 1.6696 22.7194 5.13625C26.2243 8.6029 26.2243 14.2234 22.7194 17.6902L20.302 20.0813C19.8013 20.5766 19.8013 21.3796 20.302 21.8747C20.8026 22.3699 21.6145 22.3699 22.1151 21.8747L24.5326 19.4835C29.0386 15.0264 29.0386 7.79997 24.5326 3.34284C20.0266 -1.11428 12.7207 -1.11428 8.21456 3.34284L3.37957 8.12527Z" fill="#86C232"/>
<path opacity="0.5" d="M17.2806 24.8637C13.7758 21.3972 13.7758 15.7766 17.2806 12.3099L19.6981 9.91874C20.1988 9.4235 20.1988 8.62057 19.6981 8.12534C19.1974 7.63009 18.3856 7.63009 17.8849 8.12534L15.4675 10.5165C10.9614 14.9737 10.9614 22.2002 15.4675 26.6572C19.9736 31.1143 27.2794 31.1143 31.7856 26.6572L36.6205 21.8748C41.1266 17.4176 41.1266 10.1912 36.6205 5.73411C34.5314 3.66774 31.8376 2.55866 29.1032 2.40884C28.3961 2.3701 27.7914 2.90559 27.7522 3.60489C27.7131 4.30419 28.2544 4.90249 28.9613 4.94123C31.09 5.05786 33.1815 5.91931 34.8073 7.52752C38.3122 10.9942 38.3122 16.6148 34.8073 20.0814L29.9724 24.8637C26.4677 28.3305 20.7853 28.3305 17.2806 24.8637Z" fill="#86C232"/>
</svg>
