<svg width="29" height="34" viewBox="0 0 29 34" fill="none" xmlns="http://www.w3.org/2000/svg">
<path d="M6.16602 15.5C6.16602 11.2574 6.16602 9.13604 7.3864 7.81802C8.60679 6.5 10.571 6.5 14.4993 6.5H18.666C22.5943 6.5 24.5585 6.5 25.7789 7.81802C26.9993 9.13604 26.9993 11.2574 26.9993 15.5V23C26.9993 27.2426 26.9993 29.3639 25.7789 30.6819C24.5585 32 22.5943 32 18.666 32H14.4993C10.571 32 8.60679 32 7.3864 30.6819C6.16602 29.3639 6.16602 27.2426 6.16602 23V15.5Z" stroke="#86C232" stroke-width="3"/>
<path opacity="0.5" d="M6.16667 27.5C3.86549 27.5 2 25.4854 2 23V14C2 8.34314 2 5.51473 3.62718 3.75736C5.25437 2 7.87328 2 13.1111 2H18.6667C20.9679 2 22.8333 4.01473 22.8333 6.5" stroke="#86C232" stroke-width="3"/>
</svg>
