<svg width="30" height="30" viewBox="0 0 44 44" fill="none" xmlns="http://www.w3.org/2000/svg">
<path d="M22.019 12.8958V29.23" stroke="#61892F" stroke-width="3" stroke-miterlimit="10"/>
<path d="M18.3844 29.23H25.6536" stroke="#61892F" stroke-width="3" stroke-miterlimit="10"/>
<path d="M18.3844 16.5278H23.8268" stroke="#61892F" stroke-width="3" stroke-miterlimit="10"/>
<path d="M22.019 7.43841V2" stroke="#61892F" stroke-width="3" stroke-miterlimit="10"/>
<path d="M22.019 41.9324V36.494" stroke="#61892F" stroke-width="3" stroke-miterlimit="10"/>
<path d="M36.5576 21.9662H42" stroke="#61892F" stroke-width="3" stroke-miterlimit="10"/>
<path d="M2.03799 21.9662H7.48044" stroke="#61892F" stroke-width="3" stroke-miterlimit="10"/>
<path d="M42 23.8677V21.9662C41.9886 17.2749 40.326 12.7372 37.3033 9.1476C34.2807 5.55801 30.0907 3.14536 25.467 2.33214C20.8433 1.51892 16.0807 2.35697 12.0131 4.69953C7.94557 7.04209 4.83235 10.7398 3.21863 15.1453C1.6049 19.5507 1.59353 24.383 3.18651 28.796C4.77949 33.2089 7.87528 36.9213 11.9318 39.2829C15.9882 41.6446 20.7469 42.505 25.3743 41.7135C30.0018 40.922 34.2031 38.5291 37.2426 34.9537" stroke="#61892F" stroke-width="3" stroke-miterlimit="10"/>
</svg>
