<svg width="316" height="316" viewBox="0 0 316 316" fill="none" xmlns="http://www.w3.org/2000/svg">
<g filter="url(#filter0_d_83_10)">
<rect x="8" y="8" width="300" height="300" rx="150" fill="#2D3031"/>
</g>
<path d="M188.615 58H108V74.6675H188.615C217.733 74.6675 241.333 98.2773 241.333 127.393C241.333 156.505 217.735 180.103 188.615 180.103H108V196.77H188.615C226.937 196.77 258 165.708 258 127.393C258 89.0723 226.937 58 188.615 58Z" fill="#86C232"/>
<path d="M127.385 135.897H208V119.23H127.385C89.0625 119.23 58 150.293 58 188.607C58 226.928 89.0625 258 127.385 258H208V241.333H127.385C98.2671 241.333 74.6675 217.717 74.6675 188.607C74.6675 159.495 98.2651 135.897 127.385 135.897Z" fill="#86C232"/>
<defs>
<filter id="filter0_d_83_10" x="0" y="0" width="316" height="316" filterUnits="userSpaceOnUse" color-interpolation-filters="sRGB">
<feFlood flood-opacity="0" result="BackgroundImageFix"/>
<feColorMatrix in="SourceAlpha" type="matrix" values="0 0 0 0 0 0 0 0 0 0 0 0 0 0 0 0 0 0 127 0" result="hardAlpha"/>
<feOffset/>
<feGaussianBlur stdDeviation="4"/>
<feComposite in2="hardAlpha" operator="out"/>
<feColorMatrix type="matrix" values="0 0 0 0 0 0 0 0 0 0 0 0 0 0 0 0 0 0 0.3 0"/>
<feBlend mode="normal" in2="BackgroundImageFix" result="effect1_dropShadow_83_10"/>
<feBlend mode="normal" in="SourceGraphic" in2="effect1_dropShadow_83_10" result="shape"/>
</filter>
</defs>
</svg>
