<svg width="100" height="100" viewBox="0 0 100 100" fill="none" xmlns="http://www.w3.org/2000/svg">
<rect width="100" height="100" rx="50" fill="#2D3031"/>
<path d="M59.1846 20H35V25.0002H59.1846C67.9199 25.0002 74.9998 32.0832 74.9998 40.8178C74.9998 49.5515 67.9205 56.6308 59.1846 56.6308H35V61.631H59.1846C70.6813 61.631 80 52.3123 80 40.8178C80 29.3217 70.6813 20 59.1846 20Z" fill="#86C232"/>
<path d="M40.8154 43.3692H65V38.369H40.8154C29.3188 38.369 20 47.6878 20 59.1822C20 70.6783 29.3188 80 40.8154 80H65V74.9998H40.8154C32.0801 74.9998 25.0002 67.9152 25.0002 59.1822C25.0002 50.4485 32.0795 43.3692 40.8154 43.3692Z" fill="#86C232"/>
</svg>
