<svg width="30" height="30" viewBox="0 0 44 44" fill="none" xmlns="http://www.w3.org/2000/svg">
<path d="M2 30C2 24.3432 2 21.5148 3.75736 19.7574C5.51472 18 8.34314 18 14 18H30C35.6568 18 38.4852 18 40.2426 19.7574C42 21.5148 42 24.3432 42 30C42 35.6568 42 38.4852 40.2426 40.2426C38.4852 42 35.6568 42 30 42H14C8.34314 42 5.51472 42 3.75736 40.2426C2 38.4852 2 35.6568 2 30Z" stroke="#86C232" stroke-width="3"/>
<path opacity="0.5" d="M10 18V14C10 7.37258 15.3726 2 22 2C27.5916 2 32.2898 5.82432 33.622 11" stroke="#61892F" stroke-width="3" stroke-linecap="round"/>
<path d="M12 30H12.0225M21.9775 30H22M31.9775 30H32" stroke="#86C232" stroke-width="3" stroke-linecap="round" stroke-linejoin="round"/>
</svg>
