<svg width="30" height="30" viewBox="0 0 40 40" fill="none" xmlns="http://www.w3.org/2000/svg">
<path fill-rule="evenodd" clip-rule="evenodd" d="M18.011 4.57518e-07H21.989C24.761 -1.95425e-05 26.9656 -1.93715e-05 28.7432 0.147601C30.5638 0.298781 32.115 0.6151 33.5316 1.35104C35.7234 2.48954 37.5104 4.27658 38.649 6.4683C39.385 7.88506 39.7012 9.43622 39.8524 11.2568C40 13.0344 40 15.239 40 18.011V21.989C40 24.761 40 26.9656 39.8524 28.7432C39.7012 30.5638 39.385 32.115 38.649 33.5316C37.5104 35.7234 35.7234 37.5104 33.5316 38.649C32.115 39.385 30.5638 39.7012 28.7432 39.8524C26.9656 40 24.761 40 21.989 40H18.011C15.239 40 13.0344 40 11.2568 39.8524C9.43622 39.7012 7.88506 39.385 6.4683 38.649C4.27658 37.5104 2.48954 35.7234 1.35104 33.5316C0.6151 32.115 0.298781 30.5638 0.147601 28.7432C-1.93715e-05 26.9656 -1.95425e-05 24.761 4.57518e-07 21.989V18.011C-1.95425e-05 15.239 -1.93715e-05 13.0344 0.147601 11.2568C0.298781 9.43622 0.6151 7.88506 1.35104 6.4683C2.48954 4.27658 4.27658 2.48954 6.4683 1.35104C7.88506 0.6151 9.43622 0.298781 11.2568 0.147601C13.0344 -1.93715e-05 15.239 -1.95425e-05 18.011 4.57518e-07ZM11.5878 4.13388C10.0191 4.26414 9.06284 4.51076 8.3122 4.9007C6.85106 5.6597 5.6597 6.85106 4.9007 8.3122C4.51076 9.06284 4.26414 10.0191 4.13388 11.5878C4.0016 13.1805 4 15.219 4 18.1V21.9C4 24.781 4.0016 26.8194 4.13388 28.4122C4.26414 29.981 4.51076 30.9372 4.9007 31.6878C5.6597 33.149 6.85106 34.3404 8.3122 35.0994C9.06284 35.4892 10.0191 35.7358 11.5878 35.8662C13.1805 35.9984 15.219 36 18.1 36H21.9C24.781 36 26.8194 35.9984 28.4122 35.8662C29.981 35.7358 30.9372 35.4892 31.6878 35.0994C33.149 34.3404 34.3404 33.149 35.0994 31.6878C35.4892 30.9372 35.7358 29.981 35.8662 28.4122C35.9984 26.8194 36 24.781 36 21.9V18.1C36 15.219 35.9984 13.1805 35.8662 11.5878C35.7358 10.0191 35.4892 9.06284 35.0994 8.3122C34.3404 6.85106 33.149 5.6597 31.6878 4.9007C30.9372 4.51076 29.981 4.26414 28.4122 4.13388C26.8194 4.0016 24.781 4 21.9 4H18.1C15.219 4 13.1805 4.0016 11.5878 4.13388ZM19.6568 9.51472C20.7614 9.51472 21.6568 10.4101 21.6568 11.5147V21.449L28.7106 24.1306C29.7432 24.523 30.262 25.6782 29.8694 26.7106C29.477 27.7432 28.3218 28.262 27.2894 27.8694L18.9462 24.698C18.17 24.4028 17.6568 23.6588 17.6568 22.8284V11.5147C17.6568 10.4101 18.5522 9.51472 19.6568 9.51472Z" fill="#61892F"/>
</svg>
